HIERARCHY
ROOT Hips
{
  OFFSET -35.4901 99.2528 17.4586
  CHANNELS 6 Xposition Yposition Zposition Zrotation Xrotation Yrotation
  JOINT LeftUpLeg
  {
    OFFSET 8.64259 1.95398 -2.38835
    CHANNELS 3 Zrotation Xrotation Yrotation
    JOINT LeftLeg
    {
      OFFSET 43.7702 0 0
      CHANNELS 3 Zrotation Xrotation Yrotation
      JOINT LeftFoot
      {
        OFFSET 40.6238 0 0
        CHANNELS 3 Zrotation Xrotation Yrotation
        JOINT LeftToeBase
        {
          OFFSET 12.7242 0 0
          CHANNELS 3 Zrotation Xrotation Yrotation
          End Site
          {
            OFFSET 0 0 0
          }
        }
      }
    }
  }
  JOINT RightUpLeg
  {
    OFFSET -8.2249 1.95398 -2.59336
    CHANNELS 3 Zrotation Xrotation Yrotation
    JOINT RightLeg
    {
      OFFSET 43.5653 0 0
      CHANNELS 3 Zrotation Xrotation Yrotation
      JOINT RightFoot
      {
        OFFSET 40.6238 0 0
        CHANNELS 3 Zrotation Xrotation Yrotation
        JOINT RightToeBase
        {
          OFFSET 12.7242 0 0
          CHANNELS 3 Zrotation Xrotation Yrotation
          End Site
          {
            OFFSET 0 0 0
          }
        }
      }
    }
  }
  JOINT Spine
  {
    OFFSET 0.165834 0.87714 6.61349
    CHANNELS 3 Zrotation Xrotation Yrotation
    JOINT Spine1
    {
      OFFSET 7.38963 1.71661e-005 0
      CHANNELS 3 Zrotation Xrotation Yrotation
      JOINT Spine2
      {
        OFFSET 11.9445 1.14441e-005 0
        CHANNELS 3 Zrotation Xrotation Yrotation
        JOINT Spine3
        {
          OFFSET 14.7254 4.19617e-005 0
          CHANNELS 3 Zrotation Xrotation Yrotation
          JOINT Spine4
          {
            OFFSET 10.9679 0 0
            CHANNELS 3 Zrotation Xrotation Yrotation
            JOINT RightShoulder
            {
              OFFSET 2.46616 -1.6653 3.69651
              CHANNELS 3 Zrotation Xrotation Yrotation
              JOINT RightArm
              {
                OFFSET 13.0012 0 0
                CHANNELS 3 Zrotation Xrotation Yrotation
                JOINT RightForeArm
                {
                  OFFSET 28.7848 1.52588e-005 0
                  CHANNELS 3 Zrotation Xrotation Yrotation
                  JOINT RightHand
                  {
                    OFFSET 26.5688 1.52588e-005 0
                    CHANNELS 3 Zrotation Xrotation Yrotation
                    End Site
                    {
                      OFFSET 0 0 0
                    }
                  }
                }
              }
            }
            JOINT LeftShoulder
            {
              OFFSET 2.38034 -1.29275 -3.7523
              CHANNELS 3 Zrotation Xrotation Yrotation
              JOINT LeftArm
              {
                OFFSET 16.3182 6.10351e-005 0
                CHANNELS 3 Zrotation Xrotation Yrotation
                JOINT LeftForeArm
                {
                  OFFSET 27.0901 0 0
                  CHANNELS 3 Zrotation Xrotation Yrotation
                  JOINT LeftHand
                  {
                    OFFSET 24.5451 1.52588e-005 0
                    CHANNELS 3 Zrotation Xrotation Yrotation
                    End Site
                    {
                      OFFSET 0 0 0
                    }
                  }
                }
              }
            }
            JOINT Neck
            {
              OFFSET 5.0226 -0.0266342 0
              CHANNELS 3 Zrotation Xrotation Yrotation
              JOINT Head
              {
                OFFSET 6.69364 2.86102e-005 0
                CHANNELS 3 Zrotation Xrotation Yrotation
                End Site
                {
                  OFFSET 0 0 0
                }
              }
            }
          }
        }
      }
    }
  }
}
MOTION
Frames:	6
Frame Time:	0.0416667
37.9542 94.7259 -322.25 -147.398 -84.0421 -144.217 -173.969 -15.7484 91.6973 -23.1456 10.7732 -0.84965 87.9191 10.4077 -1.58869 24.089 -1.51161 2.74603 175.585 21.4621 98.1563 -6.801 -19.657 2.0731 47.3346 6.12438 -3.33086 68.0233 -1.90407 -6.28781 -0.635865 7.98229 -90.2336 10.9077 -1.37395 -0.334959 -0.762512 -1.38736 -0.274162 -23.3021 -1.20975 -0.732449 -3.28944 -1.20977 -0.732463 88.0412 -35.6756 -108.326 38.4689 -4.46661 5.59745 -7.49262 -28.7463 -30.518 -11.4898 -1.23844 4.18373 -85.9615 -47.9294 84.4795 -23.6039 4.06418 -37.8615 16.9944 18.7666 -26.4668 2.57892 -0.249868 -8.0543 7.83469 0.343053 -12.615 0.810458 3.03011 3.46242 
37.5775 94.737 -311.364 -159.878 -83.9394 -155.227 -170.858 -22.4909 95.4106 -20.9713 13.328 -0.220834 78.8925 8.28132 -1.34698 35.9952 0.464736 -1.7283 177.791 23.2963 99.9562 -25.3742 -10.1985 -0.158375 58.2374 1.04563 -1.53241 26.0397 -3.56528 10.5416 -0.750718 7.87648 -90.6022 11.1115 -1.77382 -1.02687 -0.558633 -1.81728 -0.947803 -23.097 -1.38322 -1.51252 -3.0843 -1.38322 -1.51252 88.7657 -34.8032 -107.325 39.4133 -3.55428 5.67726 7.15197 -29.2713 -4.87819 -19.9049 -0.161985 -9.0387 -85.6219 -50.316 85.347 -23.5995 8.84995 -33.7664 12.125 21.0266 -18.5108 0.970576 -0.171873 -7.55422 8.53671 0.940346 -9.10357 -0.675575 2.88539 2.35411 
37.1721 95.0093 -301.163 -169.717 -82.0147 -163.921 -166.435 -10.868 101.775 -48.0066 23.3384 1.98557 62.5281 1.81466 -0.907868 30.0327 1.99515 -3.96447 176.961 19.5274 101.247 -36.6719 -8.642 0.523201 68.8666 -3.62206 -1.80654 18.5293 -3.09474 7.69046 -0.605362 7.92199 -90.8303 11.018 -1.58987 -1.50111 -0.652793 -1.65439 -1.42968 -23.185 -1.06531 -1.90943 -3.17235 -1.0653 -1.90943 89.0597 -33.9444 -107.091 39.6986 -2.80391 4.89882 5.16748 -30.2171 -8.36022 -18.8419 -0.151647 -8.94509 -85.7704 -49.905 85.0647 -25.1736 13.7496 -29.5548 2.36765 26.7805 -2.57431 0.0277014 -0.0795134 -3.93032 7.45204 0.618697 -7.33569 -1.73673 2.10232 2.34868 
36.7953 96.1673 -293.335 -177.361 -81.7695 -171.575 -167.829 7.93379 101.368 -70.0172 20.1902 4.40787 63.5071 2.42481 2.26639 15.1787 1.32207 -0.636683 176.702 12.3298 100.821 -34.879 -9.73202 0.561172 73.6989 -5.93558 -2.89235 20.0173 -2.54035 6.59915 -0.282213 7.98756 -90.8141 10.8878 -0.938135 -1.53051 -0.783562 -1.00458 -1.48775 -23.3125 -0.434864 -1.74164 -3.29985 -0.434866 -1.74164 89.0062 -33.5995 -107.319 38.1188 -6.10853 -0.610295 3.5642 -27.3886 -11.9032 -24.3591 -0.277355 -7.02497 -85.3984 -51.5195 85.8427 -24.7434 13.1946 -21.5484 -0.0233456 27.1833 0.925531 -1.11809 -0.0804472 -3.56989 6.96713 -0.432422 -5.92729 -0.968465 0.769592 1.47012 
37.2434 97.9429 -285.543 -165.685 -81.5418 -163.616 -171.256 19.4658 94.7396 -65.1347 6.70875 1.9787 70.0868 5.69318 2.46021 12.8551 -0.0883731 1.31679 175.17 3.96865 96.334 -29.684 -14.2048 -0.819289 76.2636 -7.05699 -3.07529 21.1046 -2.7472 7.08671 0.383167 7.96794 -90.2826 10.9395 0.63213 -0.622006 -0.731457 0.604144 -0.64922 -23.2673 0.789835 -0.403268 -3.25461 0.789841 -0.403256 88.7136 -32.9961 -108.097 36.0236 -8.4962 -6.61102 2.00537 -28.1813 -15.5253 -28.6495 -0.871166 -4.06858 -84.6876 -51.4955 86.8952 -23.0444 13.4975 -8.99477 4.35877 19.2814 -10.1609 -1.62976 -0.0912648 -4.48371 3.87581 -1.47165 -3.63404 0.653773 -0.827151 -0.425529 
38.221 98.4581 -277.586 -146.528 -81.9078 -147.773 -174.703 23.9968 90.0168 -40.9425 -0.698474 -1.48583 66.2791 4.2045 -2.31725 15.3609 0.644839 0.204742 172.125 -0.064136 89.6914 -26.0422 -21.3892 -1.23208 79.113 -9.15147 -4.54735 20.1489 -2.79154 7.15079 0.980383 7.89288 -89.8923 11.0874 2.00158 0.0218508 -0.581962 2.0006 -0.0663068 -23.1287 1.90243 0.622609 -3.11605 1.90243 0.622622 88.2713 -30.7901 -109.829 32.891 -10.2714 -12.0367 -1.2178 -29.9262 -20.5834 -27.1303 -0.635539 -5.36868 -83.3783 -51.6729 88.858 -20.9863 13.3553 -1.64977 4.92191 12.6462 -15.2952 -2.04667 -0.098347 -6.87815 3.38695 -1.40248 2.01588 0.475515 -1.79142 -3.5022 
